<?xml version="1.0" encoding="UTF-8"?>
<svg width="1000" height="1000" viewBox="0 0 1000 1000" xmlns="http://www.w3.org/2000/svg" role="img" aria-labelledby="title desc">
  <title id="title">Minimal rounded star M logo</title>
  <desc id="desc">A smooth abstract black star shape that also forms the letter M.</desc>
  <path d="M 75.8 621.2 L 75.8 631.3 L 79.5 641.4 L 88.4 650.3 L 101.0 656.6 L 103.5 656.6 L 108.6 659.1 L 112.4 659.1 L 113.6 660.4 L 131.3 661.6 L 132.6 662.9 L 147.7 662.9 L 149.0 664.1 L 174.2 664.1 L 175.5 662.9 L 224.7 662.9 L 226.0 661.6 L 271.5 661.6 L 272.7 660.4 L 316.9 660.4 L 318.2 661.6 L 324.5 661.6 L 325.8 662.9 L 334.6 664.1 L 342.2 667.9 L 349.7 673.0 L 363.6 686.9 L 373.7 702.0 L 392.7 739.9 L 392.7 742.4 L 407.8 771.5 L 407.8 774.0 L 425.5 808.1 L 425.5 810.6 L 443.2 846.0 L 445.7 848.5 L 449.5 857.3 L 452.0 859.8 L 455.8 867.4 L 459.6 872.5 L 473.5 885.1 L 479.8 888.9 L 482.3 888.9 L 487.4 891.4 L 491.2 891.4 L 492.4 892.7 L 508.8 892.7 L 510.1 891.4 L 517.7 890.2 L 530.3 882.6 L 545.5 866.2 L 550.5 858.6 L 554.3 849.7 L 556.8 847.2 L 577.0 806.8 L 577.0 804.3 L 589.6 780.3 L 589.6 777.8 L 598.5 761.4 L 598.5 758.8 L 626.3 702.0 L 636.4 686.9 L 650.3 673.0 L 657.8 667.9 L 674.2 661.6 L 680.6 661.6 L 681.8 660.4 L 772.7 661.6 L 774.0 662.9 L 823.2 662.9 L 824.5 664.1 L 868.7 662.9 L 869.9 661.6 L 877.5 661.6 L 878.8 660.4 L 890.2 659.1 L 906.6 652.8 L 919.2 641.4 L 923.0 631.3 L 923.0 621.2 L 921.7 619.9 L 920.5 612.4 L 910.4 596.0 L 878.8 564.4 L 877.5 564.4 L 857.3 544.2 L 856.1 544.2 L 804.3 492.4 L 804.3 491.2 L 796.7 483.6 L 782.8 464.6 L 767.7 435.6 L 767.7 433.1 L 761.4 416.7 L 761.4 412.9 L 760.1 411.6 L 760.1 406.6 L 758.8 405.3 L 758.8 400.3 L 757.6 399.0 L 757.6 392.7 L 756.3 391.4 L 756.3 381.3 L 755.1 380.1 L 755.1 363.6 L 753.8 362.4 L 753.8 343.4 L 752.5 342.2 L 752.5 319.4 L 751.3 318.2 L 751.3 296.7 L 750.0 295.5 L 750.0 275.3 L 748.7 274.0 L 748.7 252.5 L 747.5 251.3 L 747.5 231.1 L 746.2 229.8 L 746.2 208.3 L 744.9 207.1 L 744.9 186.9 L 743.7 185.6 L 743.7 164.1 L 742.4 162.9 L 742.4 150.3 L 741.2 149.0 L 741.2 143.9 L 739.9 142.7 L 739.9 138.9 L 738.6 137.6 L 737.4 131.3 L 731.1 119.9 L 719.7 109.8 L 713.4 107.3 L 708.3 107.3 L 707.1 106.1 L 691.9 107.3 L 688.1 109.8 L 685.6 109.8 L 674.2 117.4 L 664.1 127.5 L 664.1 128.8 L 656.6 136.4 L 656.6 137.6 L 641.4 155.3 L 637.6 161.6 L 627.5 173.0 L 619.9 184.3 L 614.9 189.4 L 598.5 212.1 L 593.4 217.2 L 589.6 223.5 L 579.5 234.8 L 575.8 241.2 L 570.7 246.2 L 566.9 252.5 L 561.9 257.6 L 561.9 258.8 L 556.8 263.9 L 541.7 284.1 L 526.5 299.2 L 513.9 306.8 L 505.1 308.1 L 503.8 309.3 L 493.7 309.3 L 479.8 304.3 L 471.0 298.0 L 459.6 286.6 L 459.6 285.4 L 447.0 271.5 L 443.2 265.2 L 414.1 229.8 L 410.4 223.5 L 400.3 212.1 L 362.4 161.6 L 356.1 155.3 L 342.2 136.4 L 325.8 118.7 L 313.1 109.8 L 310.6 109.8 L 305.6 107.3 L 301.8 107.3 L 300.5 106.1 L 285.4 107.3 L 275.3 112.4 L 266.4 121.2 L 260.1 133.8 L 260.1 137.6 L 257.6 143.9 L 257.6 149.0 L 256.3 150.3 L 256.3 159.1 L 255.1 160.4 L 255.1 180.6 L 253.8 181.8 L 253.8 199.5 L 252.5 200.8 L 251.3 244.9 L 250.0 246.2 L 250.0 266.4 L 248.7 267.7 L 248.7 289.1 L 247.5 290.4 L 247.5 311.9 L 246.2 313.1 L 244.9 352.3 L 243.7 353.5 L 243.7 372.5 L 242.4 373.7 L 242.4 386.4 L 241.2 387.6 L 241.2 396.5 L 239.9 397.7 L 238.6 409.1 L 237.4 410.4 L 236.1 419.2 L 234.8 420.5 L 231.1 434.3 L 221.0 455.8 L 218.4 458.3 L 217.2 462.1 L 209.6 473.5 L 200.8 483.6 L 200.8 484.8 L 143.9 542.9 L 142.7 542.9 L 123.7 561.9 L 122.5 561.9 L 89.6 594.7 L 82.1 604.8 L 78.3 612.4 L 77.0 619.9 Z M 164.1 627.5 L 171.7 616.2 L 214.6 574.5 L 215.9 574.5 L 265.2 524.0 L 265.2 522.7 L 282.8 502.5 L 285.4 497.5 L 289.1 493.7 L 301.8 474.7 L 311.9 455.8 L 311.9 453.3 L 314.4 449.5 L 314.4 447.0 L 316.9 443.2 L 316.9 440.7 L 322.0 428.0 L 323.2 417.9 L 324.5 416.7 L 324.5 411.6 L 325.8 410.4 L 325.8 402.8 L 327.0 401.5 L 327.0 388.9 L 328.3 387.6 L 328.3 358.6 L 329.5 357.3 L 329.5 351.0 L 330.8 349.7 L 332.1 343.4 L 340.9 334.6 L 347.2 332.1 L 353.5 332.1 L 354.8 333.3 L 358.6 333.3 L 371.2 340.9 L 396.5 367.4 L 396.5 368.7 L 404.0 376.3 L 404.0 377.5 L 411.6 385.1 L 411.6 386.4 L 426.8 402.8 L 426.8 404.0 L 449.5 429.3 L 449.5 430.6 L 465.9 445.7 L 486.1 455.8 L 491.2 455.8 L 492.4 457.1 L 506.3 457.1 L 507.6 455.8 L 513.9 455.8 L 515.2 454.5 L 517.7 454.5 L 530.3 448.2 L 535.4 444.4 L 556.8 423.0 L 556.8 421.7 L 572.0 405.3 L 572.0 404.0 L 607.3 363.6 L 607.3 362.4 L 626.3 342.2 L 637.6 334.6 L 650.3 332.1 L 651.5 333.3 L 657.8 334.6 L 666.7 343.4 L 666.7 346.0 L 669.2 351.0 L 669.2 356.1 L 670.5 357.3 L 670.5 390.2 L 671.7 391.4 L 671.7 402.8 L 673.0 404.0 L 673.0 411.6 L 674.2 412.9 L 675.5 424.2 L 676.8 425.5 L 676.8 429.3 L 678.0 430.6 L 681.8 444.4 L 684.3 448.2 L 684.3 450.8 L 699.5 479.8 L 718.4 506.3 L 741.2 531.6 L 741.2 532.8 L 782.8 574.5 L 784.1 574.5 L 801.8 592.2 L 803.0 592.2 L 829.5 618.7 L 834.6 627.5 L 834.6 635.1 L 830.8 638.9 L 828.3 638.9 L 827.0 640.2 L 814.4 638.9 L 813.1 637.6 L 808.1 637.6 L 806.8 636.4 L 792.9 633.8 L 787.9 631.3 L 782.8 631.3 L 777.8 628.8 L 758.8 625.0 L 753.8 622.5 L 738.6 619.9 L 733.6 617.4 L 728.5 617.4 L 727.3 616.2 L 723.5 616.2 L 722.2 614.9 L 718.4 614.9 L 712.1 612.4 L 707.1 612.4 L 700.8 609.8 L 695.7 609.8 L 694.4 608.6 L 689.4 608.6 L 688.1 607.3 L 681.8 607.3 L 680.6 606.1 L 675.5 606.1 L 674.2 604.8 L 666.7 604.8 L 665.4 603.5 L 633.8 602.3 L 632.6 603.5 L 623.7 603.5 L 622.5 604.8 L 609.8 607.3 L 594.7 614.9 L 589.6 618.7 L 582.1 626.3 L 580.8 626.3 L 580.8 627.5 L 566.9 642.7 L 551.8 665.4 L 548.0 674.2 L 545.5 676.8 L 530.3 707.1 L 530.3 709.6 L 524.0 721.0 L 524.0 723.5 L 520.2 729.8 L 520.2 732.3 L 506.3 761.4 L 502.5 765.2 L 497.5 765.2 L 491.2 757.6 L 488.6 752.5 L 488.6 750.0 L 483.6 741.2 L 483.6 738.6 L 473.5 718.4 L 473.5 715.9 L 460.9 691.9 L 460.9 689.4 L 457.1 684.3 L 450.8 670.5 L 448.2 667.9 L 441.9 655.3 L 429.3 637.6 L 417.9 625.0 L 416.7 625.0 L 409.1 617.4 L 393.9 608.6 L 391.4 608.6 L 382.6 604.8 L 367.4 603.5 L 366.2 602.3 L 348.5 602.3 L 347.2 603.5 L 325.8 604.8 L 324.5 606.1 L 318.2 606.1 L 316.9 607.3 L 311.9 607.3 L 310.6 608.6 L 292.9 611.1 L 291.7 612.4 L 287.9 612.4 L 286.6 613.6 L 282.8 613.6 L 281.6 614.9 L 277.8 614.9 L 271.5 617.4 L 266.4 617.4 L 261.4 619.9 L 257.6 619.9 L 251.3 622.5 L 246.2 622.5 L 241.2 625.0 L 237.4 625.0 L 236.1 626.3 L 232.3 626.3 L 231.1 627.5 L 227.3 627.5 L 226.0 628.8 L 222.2 628.8 L 221.0 630.1 L 202.0 633.8 L 191.9 637.6 L 180.6 638.9 L 179.3 640.2 L 170.5 640.2 L 167.9 638.9 L 164.1 635.1 Z" fill="#111111" fill-rule="evenodd"/>
</svg>
